<svg xmlns="http://www.w3.org/2000/svg" 
class="Chart" width="100%" height="100%" viewBox='0 0 500 500'><g transform="translate(75, 40) "><g 
class="Axis AxisHorizontal" transform="translate(0, 383)"><line 
class="Axis__line" x2="395"></line><text 
class="Axis__tick" transform="translate(43.88888888888888, 25)">0.3</text><text 
class="Axis__tick" transform="translate(131.6666666666667, 25)">0.4</text><text 
class="Axis__tick" transform="translate(219.44444444444446, 25)">0.5</text><text 
class="Axis__tick" transform="translate(307.22222222222223, 25)">0.6</text><text 
class="Axis__tick" transform="translate(395, 25)">0.7</text><text 
class="AxisLabel" transform="translate(197.5, 60)">X-axis: Humidity</text></g><g 
class="Axis AxisVertical"><line 
class="Axis__line" y2="383"></line><text 
class="Axis__tick" transform="translate(-16, 383)">0</text><text 
class="Axis__tick" transform="translate(-16, 319.1666666666667)">20</text><text 
class="Axis__tick" transform="translate(-16, 255.33333333333337)">40</text><text 
class="Axis__tick" transform="translate(-16, 191.5)">60</text><text 
class="Axis__tick" transform="translate(-16, 127.66666666666669)">80</text><text 
class="Axis__tick" transform="translate(-16, 63.83333333333332)">100</text><text 
class="Axis__tick" transform="translate(-16, 0)">120</text><text 
class="AxisLabel" style="transform: translate(-56px, 191.5px) rotate(-90deg);">Y-axis: Temperature</text></g><circle fill ="#ffe4e6" 
class="Circles__circle" cx="198.54441353017975" cy="174.252344426395" r="5"></circle><circle fill ="#ffe4e6" 
class="Circles__circle" cx="78.22562064903292" cy="158.228099990617" r="5"></circle><circle fill ="#fecdd3" 
class="Circles__circle" cx="384.91165819545995" cy="131.05743181031232" r="5"></circle><circle fill ="#fda4af" 
class="Circles__circle" cx="197.36869383450127" cy="170.91127563700184" r="5"></circle><circle fill ="#fb7185" 
lass="Circles__circle" cx="143.60398135599738" cy="274.50957330525716" r="5"></circle><circle fill ="#f43f5e" 
class="Circles__circle" cx="237.36855141099394" cy="230.37572024240936" r="5"></circle><circle fill ="#e11d48" 
class="Circles__circle" cx="384.5667307617356" cy="74.40441151562722" r="5"></circle><circle fill ="#be123c" 
class="Circles__circle" cx="182.484103792467" cy="94.08519048934849" r="5"></circle><circle fill ="#9f1239" 
class="Circles__circle" cx="249.4821044139514" cy="78.26866463945333" r="5"></circle><circle fill ="#881337 " 
class="Circles__circle" cx="207.6476335954468" cy="204.7869342621158" r="5"></circle><circle fill ="#ffe4e6" 
class="Circles__circle" cx="263.2416663935312" cy="154.98419561444564" r="5"></circle><circle fill ="#fecdd3" 
class="Circles__circle" cx="154.1044450912006" cy="148.7365210938476" r="5"></circle><circle fill ="#fda4af" 
class="Circles__circle" cx="155.5606156865978" cy="289.3353825198677" r="5"></circle><circle fill ="#f43f5e" 
class="Circles__circle" cx="184.22483197452706" cy="197.38377082184826" r="5"></circle><circle fill ="#e11d48" 
class="Circles__circle" cx="181.4140742049286" cy="14.786785725120508" r="5"></circle><circle fill ="#be123c" 
class="Circles__circle" cx="256.4311244030115" cy="80.91138346228946" r="5"></circle><circle fill ="#9f1239" 
class="Circles__circle" cx="38.123815813771465" cy="91.17476870127206" r="5"></circle><circle fill ="#881337" 
class="Circles__circle" cx="259.17183578375295" cy="109.08910137698595" r="5"></circle><circle fill ="#ffe4e6" 
class="Circles__circle" cx="115.60327990995395" cy="287.2279608333762" r="5"></circle><circle fill ="#fecdd3" 
class="Circles__circle" cx="229.8480921593039" cy="70.5750076358985" r="5"></circle><circle fill ="#fda4af" 
class="Circles__circle" cx="175.0270024074305" cy="158.8599209150072" r="5"></circle><circle fill ="#f43f5e" 
class="Circles__circle" cx="239.16398638698405" cy="206.02816737196198" r="5"></circle><circle fill ="#e11d48" 
class="Circles__circle" cx="118.73355729017855" cy="132.29306703904777" r="5"></circle><circle fill ="#be123c" 
class="Circles__circle" cx="165.1056043595448" cy="102.51863548215516" r="5"></circle><circle fill ="#9f1239" 
class="Circles__circle" cx="170.77866064081218" cy="36.11650808672791" r="5"></circle><circle fill ="#881337" 
class="Circles__circle" cx="265.5175402763751" cy="201.0852932381777" r="5"></circle><circle fill ="#ffe4e6" 
class="Circles__circle" cx="169.8926444322506" cy="184.63325354580812" r="5"></circle><circle fill ="#fecdd3" 
class="Circles__circle" cx="208.4931346894145" cy="252.36774656859166" r="5"></circle><circle fill ="#fda4af"  
class="Circles__circle" cx="184.67651483677776" cy="90.46938714858197" r="5"></circle><circle fill ="#f43f5e" 
class="Circles__circle" cx="218.05688295894623" cy="94.91796158713585" r="5"></circle><circle fill ="#e11d48" 
class="Circles__circle" cx="100.19263099529262" cy="161.96427913098228" r="5"></circle><circle fill ="#be123c" 
class="Circles__circle" cx="270.6696411105592" cy="83.4751842717427" r="5"></circle><circle fill ="#9f1239" 
class="Circles__circle" cx="245.6780776780104" cy="152.8233003251271" r="5"></circle><circle fill ="#881337" 
class="Circles__circle" cx="354.38131795308647" cy="151.4033489774553" r="5"></circle><circle fill ="#ffe4e6" 
class="Circles__circle" cx="122.56287823662124" cy="7.162878714735397" r="5"></circle><circle fill ="#fecdd3" 
class="Circles__circle" cx="368.48363285408436" cy="180.8425927147477" r="5"></circle><circle fill ="#fda4af" 
class="Circles__circle" cx="173.4882005307329" cy="237.07181578069347" r="5"></circle><circle fill ="#f43f5e" 
class="Circles__circle" cx="302.6657419399932" cy="202.26745637797617" r="5"></circle><circle fill ="#e11d48" 
class="Circles__circle" cx="312.9241460210942" cy="196.1512200334627" r="5"></circle><circle fill ="#be123c" 
class="Circles__circle" cx="182.1886846775423" cy="186.22619340476876" r="5"></circle><circle fill ="#9f1239" 
class="Circles__circle" cx="230.6393515066578" cy="280.02535652748844" r="5"></circle><circle fill ="#881337" 
class="Circles__circle" cx="325.41684718257534" cy="356.3993684560442" r="5"></circle><circle fill ="#ffe4e6" 
class="Circles__circle" cx="340.46159536037476" cy="75.11404171464854" r="5"></circle><circle fill ="#fecdd3" 
class="Circles__circle" cx="335.66287770941426" cy="189.30281849550434" r="5"></circle><circle fill ="#fda4af" 
class="Circles__circle" cx="206.74192982585313" cy="219.41805243369024" r="5"></circle><circle fill ="#f43f5e" 
class="Circles__circle" cx="242.91604753222472" cy="156.1755173980536" r="5"></circle><circle fill ="#e11d48" 
class="Circles__circle" cx="167.62547301596956" cy="78.65339116852348" r="5"></circle><circle fill ="#be123c" 
class="Circles__circle" cx="101.76357445716626" cy="28.809882708782947" r="5"></circle><circle fill ="#9f1239" 
class="Circles__circle" cx="287.0771519902715" cy="183.67537878115442" r="5"></circle><circle fill ="#881337" 
class="Circles__circle" cx="134.04270663052282" cy="137.9674615957559" r="5"></circle><circle fill ="#ffe4e6" 
class="Circles__circle" cx="135.13951225423622" cy="149.72856077440287" r="5"></circle><circle fill ="#fecdd3" 
class="Circles__circle" cx="183.616834869179" cy="125.07526639541152" r="5"></circle><circle fill ="#fda4af" 
class="Circles__circle" cx="242.78642661986785" cy="120.45345516124486" r="5"></circle><circle fill ="#f43f5e" 
class="Circles__circle" cx="222.204888605863" cy="176.68725003951258" r="5"></circle><circle fill ="#e11d48" 
class="Circles__circle" cx="112.37906978796669" cy="256.6731094946354" r="5"></circle><circle fill ="#be123c" 
class="Circles__circle" cx="360.44674270851664" cy="51.187034068395555" r="5"></circle><circle fill ="#9f1239" 
class="Circles__circle" cx="152.3699868049301" cy="113.16770147457517" r="5"></circle><circle fill ="#881337" 
class="Circles__circle" cx="276.8867024186121" cy="89.37208576559031" r="5"></circle><circle fill ="#ffe4e6" 
class="Circles__circle" cx="271.1272856038184" cy="137.62312167176114" r="5"></circle><circle fill ="#fecdd3" 
class="Circles__circle" cx="304.73989129779227" cy="205.55419405434685" r="5"></circle><circle fill ="#fda4af" 
class="Circles__circle" cx="187.8676127827415" cy="166.28594393091004" r="5"></circle><circle fill ="#f43f5e" 
class="Circles__circle" cx="113.28184599659484" cy="169.76904469389706" r="5"></circle><circle fill ="#e11d48" 
class="Circles__circle" cx="393.58022320999544" cy="81.58702508546607" r="5"></circle><circle fill ="#be123c"
class="Circles__circle" cx="86.18022845839936" cy="182.08251444099125" r="5"></circle><circle fill ="#881337" 
class="Circles__circle" cx="112.87942799355282" cy="133.3082002505969" r="5"></circle><circle fill ="#ffe4e6" 
class="Circles__circle" cx="156.69252454299732" cy="228.260441731467" r="5"></circle><circle fill ="#fecdd3" 
class="Circles__circle" cx="291.83122869844334" cy="240.34227170454622" r="5"></circle><circle fill ="#fda4af" 
class="Circles__circle" cx="256.5644037594701" cy="154.8297659150125" r="5"></circle><circle fill ="#f43f5e" 
class="Circles__circle" cx="150.69474191315183" cy="153.22118682851075" r="5"></circle><circle fill ="#e11d48" 
class="Circles__circle" cx="45.011276936676296" cy="220.53540950802866" r="5"></circle><circle fill ="#be123c" 
class="Circles__circle" cx="226.54723874115186" cy="188.98898910811363" r="5"></circle><circle fill ="#881337" 
class="Circles__circle" cx="90.01326720552521" cy="187.5252984700839" r="5"></circle><circle fill ="#ffe4e6" 
class="Circles__circle" cx="134.51387635337164" cy="183.40516038881026" r="5"></circle><circle fill ="#fecdd3" 
class="Circles__circle" cx="51.28942763542737" cy="56.43130032865644" r="5"></circle><circle fill ="#fda4af" 
class="Circles__circle" cx="226.35035090246862" cy="168.69128109707833" r="5"></circle><circle fill ="#f43f5e" 
class="Circles__circle" cx="118.59050046761057" cy="191.39448162232904" r="5"></circle><circle fill ="#e11d48" 
class="Circles__circle" cx="180.74672885268666" cy="159.40344270081948" r="5"></circle><circle fill ="#be123c" 
class="Circles__circle" cx="166.92681570324106" cy="188.40481080670588" r="5"></circle><circle fill ="#881337" 
class="Circles__circle" cx="178.76970313209503" cy="188.96968494281415" r="5"></circle><circle fill ="#fecdd3" 
class="Circles__circle" cx="224.51415828810926" cy="82.11419543607357" r="5"></circle><circle fill ="#fda4af" 
class="Circles__circle" cx="242.11511424539012" cy="135.73792975115384" r="5"></circle><circle fill ="#f43f5e" 
class="Circles__circle" cx="171.35510923417547" cy="102.60622362677437" r="5"></circle><circle fill ="#e11d48" 
class="Circles__circle" cx="273.8021934785856" cy="170.5574292489463" r="5"></circle><circle fill ="#be123c" 
class="Circles__circle" cx="210.9469923153948" cy="129.86216970580935" r="5"></circle><circle fill ="#881337" 
class="Circles__circle" cx="320.28237504952875" cy="98.9047058052173" r="5"></circle><circle fill ="#fecdd3" 
class="Circles__circle" cx="213.5711479450932" cy="113.85849337134503" r="5"></circle><circle fill ="#93c5fd" 
class="Circles__circle" cx="179.4603433023845" cy="90.9420261140997" r="5"></circle><circle fill ="#1e40af" 
class="Circles__circle" cx="165.70302607475767" cy="232.0056486956214" r="5"></circle><circle fill ="#93c5fd" 
class="Circles__circle" cx="187.5873605812916" cy="187.81381212712387" r="5"></circle><circle fill ="#1e40af" 
class="Circles__circle" cx="0.10350792033728684" cy="92.71237742663462" r="5"></circle><circle fill ="#93c5fd" 
class="Circles__circle" cx="272.16179051749174" cy="199.06027074306317" r="5"></circle><circle fill ="#1e40af" 
class="Circles__circle" cx="133.91994188743445" cy="110.26786931925534" r="5"></circle><circle fill ="#93c5fd" 
class="Circles__circle" cx="172.9433240374167" cy="234.96322914855412" r="5"></circle><circle fill ="#1e40af" 
class="Circles__circle" cx="44.40247802386191" cy="55.71253924104252" r="5"></circle><circle fill ="#93c5fd" 
class="Circles__circle" cx="40.81275462682623" cy="207.7326098487503" r="5"></circle><circle fill ="#1e40af" 
class="Circles__circle" cx="310.61907523049695" cy="210.43854867496435" r="5"></circle><circle fill ="#93c5fd" 
class="Circles__circle" cx="216.6612179518546" cy="122.3396561088776" r="5"></circle><circle fill ="#1e40af" 
class="Circles__circle" cx="152.4065746613981" cy="166.02013666738142" r="5"></circle><circle fill ="#93c5fd" 
class="Circles__circle" cx="271.4388052445982" cy="224.70586496425253" r="5"></circle><circle fill ="#1e40af" 
class="Circles__circle" cx="217.2955947775481" cy="176.0103254556564" r="5"></circle></g></svg>

