<svg class="Chart" width="500" height="500"><g transform="translate(75, 40)"><g class="Axis AxisHorizontal fromLinkFiber62" transform="translate(0, 383)"><line class="Axis__line" x2="395"></line><text class="Axis__tick" transform="translate(39.49999999999999, 25)">0.3</text><text class="Axis__tick" transform="translate(118.50000000000001, 25)">0.4</text><text class="Axis__tick" transform="translate(197.5, 25)">0.5</text><text class="Axis__tick" transform="translate(276.5, 25)">0.6</text><text class="Axis__tick" transform="translate(355.49999999999994, 25)">0.7</text><text class="Axis__label" transform="translate(197.5, 60)">X-axis: Humidity</text></g><g class="Axis AxisVertical fromLinkFiber64"><line class="Axis__line" y2="383"></line><text class="Axis__tick" transform="translate(-16, 383)">0</text><text class="Axis__tick" transform="translate(-16, 295.95454545454544)">5</text><text class="Axis__tick" transform="translate(-16, 208.9090909090909)">10</text><text class="Axis__tick" transform="translate(-16, 121.86363636363639)">15</text><text class="Axis__tick" transform="translate(-16, 34.81818181818183)">20</text><text class="Axis__label" style="transform: translate(-56px, 191.5px) rotate(-90deg);">Y-axis: Temperature</text></g><rect class="Bars__rect fromLinkFiber65" x="2" y="330.77272727272725" width="37.49999999999999" height="52.22727272727275"></rect><rect class="Bars__rect" x="41.49999999999999" y="295.95454545454544" width="37.49999999999999" height="87.04545454545456"></rect><rect class="Bars__rect" x="80.99999999999999" y="174.0909090909091" width="37.50000000000003" height="208.9090909090909"></rect><rect class="Bars__rect" x="120.50000000000001" y="174.0909090909091" width="37.499999999999986" height="208.9090909090909"></rect><rect class="Bars__rect" x="160" y="87.04545454545455" width="37.5" height="295.95454545454544"></rect><rect class="Bars__rect" x="199.5" y="17.409090909090892" width="37.50000000000003" height="365.5909090909091"></rect><rect class="Bars__rect" x="239.00000000000003" y="104.45454545454545" width="37.49999999999997" height="278.54545454545456"></rect><rect class="Bars__rect" x="278.5" y="261.1363636363637" width="37.5" height="121.86363636363632"></rect><rect class="Bars__rect" x="318" y="313.3636363636363" width="37.49999999999994" height="69.63636363636368"></rect><rect class="Bars__rect" x="357.49999999999994" y="330.77272727272725" width="37.50000000000006" height="52.22727272727275"></rect><rect class="Bars__rect" x="397" y="383" width="0" height="0"></rect></g></svg>