<svg xmlns="http://www.w3.org/2000/svg" class="Chart" width="100%" height="100%" viewBox='0 0 500 500'>
	<g transform="translate(75, 40)">
	<g class="Axis AxisHorizontal fromLinkFiber205" transform="translate(0, 383)">
	<line class="Axis__line" x2="395"></line>
	<text class="Axis__tick" transform="translate(35.90909090909093, 25)">0.2</text>
	<text class="Axis__tick" transform="translate(107.72727272727275, 25)">0.3</text>
	<text class="Axis__tick" transform="translate(179.54545454545456, 25)">0.4</text>
	<text class="Axis__tick" transform="translate(251.36363636363635, 25)">0.5</text>
	<text class="Axis__tick" transform="translate(323.1818181818182, 25)">0.6</text>
	<text class="Axis__tick" transform="translate(395, 25)">0.7</text>
	<text class="AxisLabel" transform="translate(197.5, 60)">X-axis: Humidity</text></g>
	<g class="Axis AxisVertical fromLinkFiber207"><line class="Axis__line" y2="383"></line>
	<text class="Axis__tick" transform="translate(-16, 383)">0</text>
	<text class="Axis__tick" transform="translate(-16, 303.2083333333333)">5</text>
	<text class="Axis__tick" transform="translate(-16, 223.41666666666663)">10</text>
	<text class="Axis__tick" transform="translate(-16, 143.625)">15</text>
	<text class="Axis__tick" transform="translate(-16, 63.83333333333332)">20</text>
	<text class="AxisLabel" style="transform: translate(-56px, 191.5px) rotate(-90deg);">Y-axis: Temperature</text></g>
	<rect fill="#d1fae5" class="Bars__rect fromLinkFiber208" x="2" y="367.0416666666667" width="33.90909090909093" height="15.958333333333314"></rect>
	<rect fill="#d1fae5"  class="Bars__rect" x="37.90909090909093" y="383" width="33.9090909090909" height="0"></rect>
	<rect fill="#a7f3d0" class="Bars__rect" x="73.81818181818183" y="367.0416666666667" width="33.90909090909092" height="15.958333333333314"></rect>
	<rect  fill="#6ee7b7" class="Bars__rect" x="109.72727272727275" y="351.0833333333333" width="33.90909090909091" height="31.916666666666686"></rect>
	<rect fill="#34d399" class="Bars__rect" x="145.63636363636365" y="207.45833333333337" width="33.90909090909091" height="175.54166666666663"></rect>
	<rect fill="#10b981" class="Bars__rect" x="181.54545454545456" y="63.83333333333332" width="33.90909090909096" height="319.1666666666667"></rect>
	<rect fill="#059669" class="Bars__rect" x="217.45454545454552" y="143.625" width="33.90909090909082" height="239.375"></rect>
	<rect fill ="#047857" class="Bars__rect" x="253.36363636363635" y="15.95833333333332" width="33.90909090909096" height="367.0416666666667"></rect>
	<rect fill="#065f46" class="Bars__rect" x="289.2727272727273" y="111.70833333333331" width="33.90909090909088" height="271.2916666666667"></rect>
	<rect fill ="#064e3b" class="Bars__rect" x="325.1818181818182" y="271.29166666666663" width="33.909090909090935" height="111.70833333333337"></rect>
	<rect fill ="#064e3b" class="Bars__rect" x="361.0909090909091" y="335.125" width="33.90909090909088" height="47.875"></rect></g>
	</svg>