<svg xmlns="http://www.w3.org/2000/svg" class="Chart" width="100%" height="100%" viewBox='0 0 500 500' font-family="sans-serif">
<g transform="translate(75, 40)">
<g class="Axis AxisHorizontal fromLinkFiber65" transform="translate(0, 383)">
<line class="Axis__line" x2="395"></line>
<text class="Axis__tick" transform="translate(0, 25)">0</text>
<text class="Axis__tick" transform="translate(79, 25)">10</text>
<text class="Axis__tick" transform="translate(158, 25)">20</text><text class="Axis__tick" transform="translate(237, 25)">30</text><text class="Axis__tick" transform="translate(316, 25)">40</text>
<text class="Axis__tick" transform="translate(395, 25)">50</text>
<text class="Axis__label" transform="translate(197.5, 60)">X-axis: Days of Walking</text></g>
<g class="Axis AxisVertical fromLinkFiber67">
<line class="Axis__line" y2="383"></line>
<text class="Axis__tick" transform="translate(-16, 383)">0</text>
<text class="Axis__tick" transform="translate(-16, 306.40000000000003)">20</text>
<text class="Axis__tick" transform="translate(-16, 229.79999999999998)">40</text>
<text class="Axis__tick" transform="translate(-16, 153.20000000000002)">60</text>
<text class="Axis__tick" transform="translate(-16, 76.59999999999998)">80</text>
<text class="Axis__tick" transform="translate(-16, 0)">100</text>
<text class="Axis__label" style="transform: translate(-56px, 191.5px) rotate(-90deg);">Y-axis: Steps</text></g>
<path fill = "#22d3ee" class="Line--type-line fromLinkFiber68" d="M0,50.33440351552836C2.6333333333333333,100.64566710604782,5.2666666666666675,150.9569306965673,7.9,150.9569306965673C10.533333333333333,150.9569306965673,13.166666666666668,150.72556251809937,15.8,150.26282616116347C18.433333333333334,149.80008980422758,21.066666666666666,146.09110473884152,23.7,137.7476618941976C26.333333333333332,129.40421904955366,28.96666666666667,6.782336020225197,31.6,6.782336020225197C34.233333333333334,6.782336020225197,36.86666666666667,151.46799757790217,39.5,151.46799757790217C42.13333333333333,151.46799757790217,44.766666666666666,148.22570025009503,47.4,141.74110559448073C50.03333333333333,135.25651093886643,52.66666666666667,94.06739034039448,55.300000000000004,78.22253950001418C57.93333333333334,62.37768865963389,60.56666666666667,46.672000552198895,63.2,46.672000552198895C65.83333333333333,46.672000552198895,68.46666666666667,281.4890867017941,71.1,309.4473183889081C73.73333333333333,337.40555007602217,76.36666666666666,351.38466591957916,79,351.38466591957916C81.63333333333334,351.38466591957916,84.26666666666667,134.09422767170454,86.9,134.09422767170454C89.53333333333333,134.09422767170454,92.16666666666667,180.9312699245943,94.8,197.5595365715792C97.43333333333334,214.18780321856414,100.06666666666666,233.863827553614,102.7,233.863827553614C105.33333333333334,233.863827553614,107.96666666666667,151.25320049046925,110.60000000000001,125.83963299759819C113.23333333333333,100.42606550472716,115.86666666666667,81.38242259638758,118.5,81.38242259638758C121.13333333333334,81.38242259638758,123.76666666666667,278.7226055229857,126.4,278.7226055229857C129.03333333333333,278.7226055229857,131.66666666666669,99.39749605625204,134.3,72.08218470906937C136.93333333333334,44.766873361886795,139.56666666666666,31.10921768829551,142.2,31.10921768829551C144.83333333333331,31.10921768829551,147.46666666666667,313.1896101942317,150.1,313.1896101942317C152.73333333333332,313.1896101942317,155.36666666666667,215.72238978087768,158,174.18140425906657C160.63333333333333,132.64041873725546,163.26666666666668,83.14817131438842,165.9,63.943697063364986C168.53333333333333,44.73922281234155,171.16666666666669,35.13698568682983,173.8,35.13698568682983C176.43333333333334,35.13698568682983,179.0666666666667,336.28007419854293,181.70000000000002,336.28007419854293C184.33333333333334,336.28007419854293,186.96666666666667,74.5785829773348,189.6,74.5785829773348C192.23333333333332,74.5785829773348,194.86666666666667,295.33784957446835,197.5,295.33784957446835C200.13333333333333,295.33784957446835,202.76666666666668,291.60938266861746,205.4,284.15244885691567C208.03333333333333,276.6955150452139,210.66666666666669,233.7361991577194,213.3,233.7361991577194C215.93333333333334,233.7361991577194,218.5666666666667,292.6890406367115,221.20000000000002,292.6890406367115C223.83333333333334,292.6890406367115,226.46666666666667,60.321025634316705,229.1,60.321025634316705C231.73333333333332,60.321025634316705,234.36666666666667,175.47728794392913,237,175.47728794392913C239.63333333333333,175.47728794392913,242.26666666666668,85.9094850195244,244.9,85.9094850195244C247.53333333333333,85.9094850195244,250.16666666666669,322.3188023956009,252.8,332.68624903398C255.43333333333334,343.053695672359,258.06666666666666,348.23741899154857,260.7,348.23741899154857C263.3333333333333,348.23741899154857,265.9666666666667,208.75787685111916,268.6,164.3863761280328C271.23333333333335,120.01487540494674,273.8666666666667,82.0084146530306,276.5,82.0084146530306C279.1333333333333,82.0084146530306,281.76666666666665,169.04993288921335,284.4,198.02522388257086C287.0333333333333,227.0005148759286,289.6666666666667,255.8601606131759,292.3,255.8601606131759C294.93333333333334,255.8601606131759,297.56666666666666,233.40949480925997,300.2,226.90058430324774C302.8333333333333,220.39167379723548,305.4666666666667,216.8066975771026,308.1,216.8066975771026C310.73333333333335,216.8066975771026,313.3666666666667,270.35514870158715,316,270.35514870158715C318.6333333333333,270.35514870158715,321.26666666666665,144.91190487179185,323.9,144.91190487179185C326.5333333333333,144.91190487179185,329.1666666666667,354.82365401674986,331.8,354.82365401674986C334.43333333333334,354.82365401674986,337.06666666666666,171.38893624157035,339.7,146.18965035109753C342.3333333333333,120.99036446062453,344.9666666666667,108.39072151538804,347.6,108.39072151538804C350.23333333333335,108.39072151538804,352.8666666666667,288.91155116066966,355.5,288.91155116066966C358.1333333333333,288.91155116066966,360.7666666666667,259.95499503135017,363.40000000000003,220.29218463510188C366.03333333333336,180.62937423885415,368.66666666666663,75.26754072247235,371.29999999999995,50.93468878318299C373.9333333333333,26.601836843893288,376.56666666666666,14.43541087424844,379.2,14.43541087424844C381.8333333333333,14.43541087424844,384.46666666666664,179.87330254455765,387.09999999999997,345.31119421486693">
</path>
</g>
</svg>



















